<?xml version="1.0"?>
<svg version="1.1" xmlns="http://www.w3.org/2000/svg" width="75" height="36" style=""><path fill="#6070ff" d="M15.56,27.6l0-1.36l1.2-0.48l0-7.52l-1.2-0.48l0-1.36l3.68-0.08l1.52,0c2.448,0,3.888,1.28,3.888,3.36c0,2.688-1.648,4-4.56,4l-0.848,0l0,2.08l1.2,0.48l0,1.36l-4.88,0z M19.24,21.808l0.848,0c1.328,0,2.08-0.624,2.08-1.808c0-1.04-0.56-1.76-1.648-1.76l-1.28,0l0,3.568z M30.96016,18.8c2.592,0,4.032,1.568,4.032,4.32c0,2.88-1.68,4.64-4.272,4.64c-2.608,0-4.08-1.36-4.08-4.4c0-2.88,1.712-4.56,4.32-4.56z M30.88016,20.72c-1.168,0-1.76,0.64-1.76,2.56c0,1.76,0.512,2.56,1.68,2.56c1.152,0,1.712-0.72,1.712-2.64c0-1.632-0.48-2.48-1.632-2.48z M40.58432,18.96l0.144,1.104s1.152-1.264,2.224-1.264c0.88,0,1.488,0.288,1.488,0.288l-0.128,3.072l-1.44,0l-0.24-1.36c-0.928,0-1.728,0.896-1.728,0.896l0,4.224l1.6,0.4l0,1.28l-5.28,0l0-1.28l1.28-0.4l0-5.2l-1.28-0.4l0-1.28z M51.87248,25.552l0.576,1.216c-0.784,0.576-1.68,0.992-2.72,0.992c-1.84,0-2.368-1.28-2.368-3.12l0-3.68l-1.488,0l0-1.552l1.488-0.208l0-2.208l2.4-0.432l0,2.64l2.24,0l0,1.76l-2.24,0l0,3.52c0,1.024,0.176,1.44,0.848,1.44c0.432,0,1.056-0.256,1.264-0.368z M55.80064,19.12l0-0.72c0-2.032,1.168-3.392,3.44-3.392c1.728,0,2.832,0.592,2.832,0.592l-0.048,2.352l-1.44,0l-0.24-1.12s-0.384-0.064-0.912-0.064c-0.88,0-1.232,0.528-1.232,1.36l0,0.992l2.08,0l-0.048,1.6l-2.032,0l0,5.2l1.6,0.4l0,1.28l-5.28,0l0-1.28l1.28-0.4l0-5.2l-1.44,0l0-1.36z M67.1048,18.8c2.592,0,4.032,1.568,4.032,4.32c0,2.88-1.68,4.64-4.272,4.64c-2.608,0-4.08-1.36-4.08-4.4c0-2.88,1.712-4.56,4.32-4.56z M67.0248,20.72c-1.168,0-1.76,0.64-1.76,2.56c0,1.76,0.512,2.56,1.68,2.56c1.152,0,1.712-0.72,1.712-2.64c0-1.632-0.48-2.48-1.632-2.48z M76.82496,25.92l1.44,0.4l0,1.28l-5.136,0l0-1.28l1.28-0.4l0-8.992l-1.28-0.32l0-1.28l3.696-0.128l0,10.72z M81.00912,16.32c0-0.912,0.656-1.44,1.376-1.44c0.832,0,1.344,0.432,1.344,1.44c0,0.944-0.688,1.456-1.344,1.456c-0.864,0-1.376-0.512-1.376-1.456z M83.69712,25.92l1.12,0.4l0,1.28l-4.8,0l0-1.28l1.28-0.4l0-5.2l-1.28-0.4l0-1.28l3.68-0.08l0,6.96z M91.28928,18.8c2.592,0,4.032,1.568,4.032,4.32c0,2.88-1.68,4.64-4.272,4.64c-2.608,0-4.08-1.36-4.08-4.4c0-2.88,1.712-4.56,4.32-4.56z M91.20928,20.72c-1.168,0-1.76,0.64-1.76,2.56c0,1.76,0.512,2.56,1.68,2.56c1.152,0,1.712-0.72,1.712-2.64c0-1.632-0.48-2.48-1.632-2.48z"/><path fill="#" d=""/></svg>
