<?xml version="1.0"?>
<svg version="1.1" xmlns="http://www.w3.org/2000/svg" width="400" height="200" style="border: dashed 2px #aaa"><path fill="#d1dae0" d="M37.456,114.364c0.028,0.476-0.112,0.756-0.644,0.756l-2.268,0c-0.588,0-0.7-0.28-0.728-0.924l-0.392-11.368l-0.056,0l-4.76,11.788c-0.168,0.448-0.448,0.504-0.756,0.504l-0.98,0c-0.42,0-0.672-0.084-0.868-0.532l-5.292-11.76l-0.056,0l-0.252,11.592c0,0.616-0.252,0.7-0.756,0.7l-1.904,0c-0.532,0-0.756-0.196-0.728-0.728l0.7-17.892c0.028-0.588,0.224-0.756,0.672-0.756l1.652,0c0.56,0,0.756,0.196,0.952,0.616l6.468,13.832l0.056,0l5.908-13.832c0.168-0.42,0.392-0.616,0.896-0.616l1.652,0c0.448,0,0.616,0.168,0.644,0.616z M55.138,101.932c0,0.084-0.028,0.168-0.056,0.28l-5.516,14.504c-1.26,3.332-2.828,4.508-6.188,4.508c-0.532,0-1.008-0.028-1.484-0.14c-0.308-0.056-0.42-0.224-0.42-0.476c0-0.084,0.028-0.14,0.028-0.252l0.196-1.456c0.056-0.364,0.196-0.504,0.504-0.504l0.168,0c0.336,0.028,0.672,0.084,0.952,0.084c1.736,0,2.464-0.616,3.024-1.932l0.532-1.26l-5.096-13.132c-0.028-0.084-0.056-0.14-0.056-0.224c0-0.224,0.168-0.392,0.42-0.392l2.688,0c0.392,0,0.588,0.196,0.7,0.476l3.108,9.268l2.94-9.1c0.14-0.448,0.364-0.644,0.84-0.644l2.268,0c0.28,0,0.448,0.168,0.448,0.392z M80.338,101.848c0,4.34-3.276,6.468-7.392,6.468c-0.224,0-1.484-0.056-1.68-0.084l0,6.216c0,0.42-0.168,0.672-0.7,0.672l-2.24,0c-0.448,0-0.672-0.196-0.672-0.756l0-17.864c0-0.56,0.168-0.756,0.7-0.756l4.06,0c2.968,0,5.152,0.56,6.524,2.128c0.896,1.036,1.4,2.464,1.4,3.976z M76.698,101.988c0-2.548-1.568-3.444-3.976-3.444l-1.456,0l0,6.944c0.224,0,1.484,0.028,1.652,0.028c2.38,0,3.78-1.12,3.78-3.528z M97.292,108.316c0,4.032-2.464,7.14-6.832,7.14c-4.564,0-6.664-3.08-6.664-7.168c0-4.032,2.464-7.112,6.832-7.112c4.564,0,6.664,3.024,6.664,7.14z M93.792,108.316c0-2.296-0.728-4.48-3.192-4.48c-2.492,0-3.304,2.156-3.304,4.396c0,2.296,0.7,4.564,3.192,4.564c2.464,0,3.304-2.184,3.304-4.48z M109.346,101.652c0,0.084,0,0.168-0.028,0.252l-0.308,1.988c-0.028,0.252-0.168,0.364-0.392,0.364l-0.112,0c-0.224-0.056-0.504-0.084-0.756-0.084c-0.952,0-1.988,0.504-2.688,1.344l0,8.904c0,0.448-0.196,0.7-0.672,0.7l-2.044,0c-0.448,0-0.672-0.224-0.672-0.7l0-8.736l0-3.444c0-0.56,0.28-0.7,0.7-0.7l1.792,0c0.448,0,0.7,0.14,0.7,0.532l0.028,0.896c0.868-1.092,1.82-1.792,3.388-1.792c0.224,0,0.532,0.056,0.784,0.112c0.196,0.056,0.28,0.14,0.28,0.364z M121.456,114.28c0,0.28-0.14,0.42-0.42,0.532c-0.868,0.364-2.016,0.644-3.136,0.644c-1.428,0-2.66-0.364-3.36-1.176c-0.868-0.98-0.896-2.128-0.896-4.172l0-6.244l-1.316,0c-0.532,0-0.616-0.112-0.616-0.7l0-1.064c0-0.336,0.168-0.56,0.504-0.56l1.428,0l0-3.052c0-0.476,0.252-0.616,0.7-0.672l2.016-0.252l0.14,0c0.364,0,0.532,0.196,0.532,0.616l0,3.36l3.164,0c0.336,0,0.532,0.112,0.532,0.476l0,1.316c0,0.336-0.224,0.532-0.56,0.532l-3.136,0l0,6.412c0,0.84,0.056,1.456,0.364,1.904c0.252,0.364,0.644,0.588,1.316,0.588c0.7,0,1.288-0.168,1.792-0.336c0.112-0.028,0.196-0.056,0.28-0.056c0.196,0,0.308,0.112,0.364,0.336l0.28,1.4c0.028,0.084,0.028,0.112,0.028,0.168z M134.406,95.856c0,0.14-0.028,0.308-0.056,0.476l-0.196,1.176c-0.056,0.252-0.14,0.42-0.364,0.42c-0.112,0-0.196-0.028-0.308-0.056c-0.56-0.196-1.232-0.364-1.904-0.364c-1.68,0-2.044,1.12-2.044,2.744l0,1.288l3.108,0c0.336,0,0.56,0.112,0.56,0.476l0,1.316c0,0.364-0.224,0.532-0.56,0.532l-3.108,0l0,10.472c0,0.504-0.168,0.784-0.7,0.784l-2.016,0c-0.476,0-0.672-0.252-0.672-0.728l0-10.528l-1.512,0c-0.504,0-0.588-0.112-0.588-0.7l0-1.064c0-0.336,0.168-0.56,0.532-0.56l1.568,0l0-0.756c0-0.924,0.084-1.652,0.196-2.268c0.448-2.352,1.932-3.78,4.732-3.78c0.924,0,2.156,0.224,2.968,0.588c0.28,0.112,0.364,0.28,0.364,0.532z M149.848,108.316c0,4.032-2.464,7.14-6.832,7.14c-4.564,0-6.664-3.08-6.664-7.168c0-4.032,2.464-7.112,6.832-7.112c4.564,0,6.664,3.024,6.664,7.14z M146.348,108.316c0-2.296-0.728-4.48-3.192-4.48c-2.492,0-3.304,2.156-3.304,4.396c0,2.296,0.7,4.564,3.192,4.564c2.464,0,3.304-2.184,3.304-4.48z M157.618,114.42c0,0.476-0.224,0.7-0.616,0.7l-2.128,0c-0.392,0-0.644-0.196-0.644-0.672l0-18.368c0-0.476,0.196-0.616,0.56-0.672l2.016-0.28c0.056,0,0.14-0.028,0.196-0.028c0.336,0,0.616,0.168,0.616,0.616l0,18.704z M166.592,97.984c0,1.092-0.952,1.764-1.876,1.764s-1.904-0.616-1.904-1.736s0.924-1.792,1.904-1.792c0.952,0,1.876,0.644,1.876,1.764z M166.424,114.42c0,0.504-0.224,0.7-0.7,0.7l-1.96,0c-0.504,0-0.728-0.196-0.728-0.7l0-12.236c0-0.476,0.28-0.644,0.728-0.644l1.96,0c0.448,0,0.7,0.14,0.7,0.644l0,12.236z M184.47,108.316c0,4.032-2.464,7.14-6.832,7.14c-4.564,0-6.664-3.08-6.664-7.168c0-4.032,2.464-7.112,6.832-7.112c4.564,0,6.664,3.024,6.664,7.14z M180.97,108.316c0-2.296-0.728-4.48-3.192-4.48c-2.492,0-3.304,2.156-3.304,4.396c0,2.296,0.7,4.564,3.192,4.564c2.464,0,3.304-2.184,3.304-4.48z"/><path fill="#" d=""/></svg>
