<?xml version="1.0"?>
<svg version="1.1" xmlns="http://www.w3.org/2000/svg" width="400" height="200" style="border: dashed 2px #aaa"><path fill="#6070ff" d="M15.35,106l0-0.85l0.75-0.3l0-4.7l-0.75-0.3l0-0.85l2.58-0.05l1.5,3.33l1.57-3.28l2.4-0.05l0,0.9l-0.72,0.3l0,4.7l0.75,0.3l0,0.85l-2.98,0l0-0.85l0.78-0.3l0-3.76l-0.27,0.66l-1.13,2.35l-1.08,0.05l-1.15-2.37l-0.17-0.52l0,3.59l0.77,0.3l0,0.85l-2.85,0z M24.5251,101.45l0-0.8l2.67-0.05l0,0.85l-0.56,0.1l0.89,2.8l0.85-2.77l-0.58-0.13l0-0.8l2.69-0.05l0,0.85l-0.62,0.13l-1.47,4.1c-0.48,1.32-1.13,2.72-2.72,2.72c-0.34,0-0.97-0.08-0.97-0.08l0.14-1.07l0.65,0c0.8,0,1.17-0.85,1.34-1.24l-1.78-4.4z M34.5753,106l0-0.85l0.75-0.3l0-4.7l-0.75-0.3l0-0.85l2.3-0.05l0.95,0c1.53,0,2.43,0.8,2.43,2.1c0,1.68-1.03,2.5-2.85,2.5l-0.53,0l0,1.3l0.75,0.3l0,0.85l-3.05,0z M36.8753,102.38l0.53,0c0.83,0,1.3-0.39,1.3-1.13c0-0.65-0.35-1.1-1.03-1.1l-0.8,0l0,2.23z M44.2004,100.5c1.62,0,2.52,0.98,2.52,2.7c0,1.8-1.05,2.9-2.67,2.9c-1.63,0-2.55-0.85-2.55-2.75c0-1.8,1.07-2.85,2.7-2.85z M44.1504,101.7c-0.73,0-1.1,0.4-1.1,1.6c0,1.1,0.32,1.6,1.05,1.6c0.72,0,1.07-0.45,1.07-1.65c0-1.02-0.3-1.55-1.02-1.55z M50.2155,100.6l0.09,0.69s0.72-0.79,1.39-0.79c0.55,0,0.93,0.18,0.93,0.18l-0.08,1.92l-0.9,0l-0.15-0.85c-0.58,0-1.08,0.56-1.08,0.56l0,2.64l1,0.25l0,0.8l-3.3,0l0-0.8l0.8-0.25l0-3.25l-0.8-0.25l0-0.8z M57.2706,104.72l0.36,0.76c-0.49,0.36-1.05,0.62-1.7,0.62c-1.15,0-1.48-0.8-1.48-1.95l0-2.3l-0.93,0l0-0.97l0.93-0.13l0-1.38l1.5-0.27l0,1.65l1.4,0l0,1.1l-1.4,0l0,2.2c0,0.64,0.11,0.9,0.53,0.9c0.27,0,0.66-0.16,0.79-0.23z M59.7257,100.7l0-0.45c0-1.27,0.73-2.12,2.15-2.12c1.08,0,1.77,0.37,1.77,0.37l-0.03,1.47l-0.9,0l-0.15-0.7s-0.24-0.04-0.57-0.04c-0.55,0-0.77,0.33-0.77,0.85l0,0.62l1.3,0l-0.03,1l-1.27,0l0,3.25l1,0.25l0,0.8l-3.3,0l0-0.8l0.8-0.25l0-3.25l-0.9,0l0-0.85z M66.7908,100.5c1.62,0,2.52,0.98,2.52,2.7c0,1.8-1.05,2.9-2.67,2.9c-1.63,0-2.55-0.85-2.55-2.75c0-1.8,1.07-2.85,2.7-2.85z M66.7408,101.7c-0.73,0-1.1,0.4-1.1,1.6c0,1.1,0.32,1.6,1.05,1.6c0.72,0,1.07-0.45,1.07-1.65c0-1.02-0.3-1.55-1.02-1.55z M72.8659,104.95l0.9,0.25l0,0.8l-3.21,0l0-0.8l0.8-0.25l0-5.62l-0.8-0.2l0-0.8l2.31-0.08l0,6.7z M75.481,98.95c0-0.57,0.41-0.9,0.86-0.9c0.52,0,0.84,0.27,0.84,0.9c0,0.59-0.43,0.91-0.84,0.91c-0.54,0-0.86-0.32-0.86-0.91z M77.161,104.95l0.7,0.25l0,0.8l-3,0l0-0.8l0.8-0.25l0-3.25l-0.8-0.25l0-0.8l2.3-0.05l0,4.35z M81.9061,100.5c1.62,0,2.52,0.98,2.52,2.7c0,1.8-1.05,2.9-2.67,2.9c-1.63,0-2.55-0.85-2.55-2.75c0-1.8,1.07-2.85,2.7-2.85z M81.8561,101.7c-0.73,0-1.1,0.4-1.1,1.6c0,1.1,0.32,1.6,1.05,1.6c0.72,0,1.07-0.45,1.07-1.65c0-1.02-0.3-1.55-1.02-1.55z"/><path fill="#" d=""/></svg>
